<svg width="16" height="12" viewBox="0 0 16 12" fill="none" xmlns="http://www.w3.org/2000/svg">
<path d="M14.6808 5.33146C14.8936 5.62989 15 5.7791 15 5.99998C15 6.22085 14.8936 6.37006 14.6808 6.66849C13.7245 8.00937 11.2825 10.9 8 10.9C4.71755 10.9 2.27547 8.00937 1.31923 6.66849C1.10641 6.37006 1 6.22085 1 5.99998C1 5.7791 1.10641 5.62989 1.31923 5.33147C2.27547 3.99058 4.71754 1.09998 8 1.09998C11.2825 1.09998 13.7245 3.99058 14.6808 5.33146Z" stroke="black" stroke-width="1.5"/>
<path d="M10.1004 5.99998C10.1004 4.84018 9.16019 3.89998 8.00039 3.89998C6.84059 3.89998 5.90039 4.84018 5.90039 5.99998C5.90039 7.15977 6.84059 8.09998 8.00039 8.09998C9.16019 8.09998 10.1004 7.15977 10.1004 5.99998Z" stroke="black" stroke-width="1.5"/>
</svg>
