<svg width="81" height="80" viewBox="0 0 81 80" fill="none" xmlns="http://www.w3.org/2000/svg">
<path d="M55.7074 73.8587L55.7196 0.144503C55.7196 0.000905509 55.7819 -0.0356667 55.9065 0.0347773C60.3635 2.57618 64.8015 5.14196 69.2205 7.73213C73.9795 10.5201 76.926 12.922 78.8564 17.681C80.8356 22.5498 80.165 28.8938 80.1325 34.1527C80.1054 38.3739 80.0946 42.5965 80.1 46.8204C80.1027 50.2315 79.9104 52.6944 79.5229 54.2089C77.9745 60.2684 74.4388 63.1986 68.8059 66.4946C64.5007 69.0143 60.1806 71.4961 55.8456 73.94C55.8314 73.9477 55.8155 73.9516 55.7993 73.9514C55.7832 73.9511 55.7674 73.9467 55.7535 73.9385C55.7396 73.9303 55.728 73.9186 55.7199 73.9046C55.7119 73.8907 55.7075 73.8749 55.7074 73.8587Z" fill="#F45D2D"/>
<path d="M28.2424 75.0332C28.4727 73.3019 28.5878 71.5367 28.5878 69.7377C28.5933 54.6085 28.5878 39.4779 28.5716 24.346C28.5689 22.78 28.4578 20.4323 28.2383 17.303L28.1936 14.7914C28.1909 14.6505 28.2519 14.6139 28.3765 14.6817C32.7332 17.1364 37.0682 19.6317 41.3816 22.1677C44.4134 23.9505 46.5145 25.4366 47.6849 26.626C51.0446 30.0371 52.7339 34.3491 52.7529 39.5619C52.7745 45.3573 52.7759 57.3057 52.7569 75.4071C52.7569 75.5371 52.7054 75.6401 52.6025 75.7159C44.5068 81.6739 36.7444 81.1009 28.5147 75.9517C28.3277 75.8325 28.2167 75.7092 28.1814 75.5818C28.1354 75.4193 28.1557 75.2364 28.2424 75.0332Z" fill="#F45D2D"/>
<path d="M28.2383 17.3031C28.4578 20.4324 28.5689 22.7801 28.5716 24.3462C28.5879 39.4781 28.5933 54.6087 28.5879 69.7379C28.5879 71.5369 28.4727 73.3021 28.2424 75.0334L28.2383 17.3031Z" fill="#F45D2D"/>
<path d="M1.02115 27.4063C6.10126 30.3081 11.2342 33.2017 16.2452 36.2741C21.2007 39.3113 24.0957 43.5177 24.9302 48.8931C25.0846 49.8983 25.1794 52.6049 25.2147 57.0131C25.2607 62.6486 25.2539 68.2747 25.1943 73.8912C25.1938 73.9081 25.1889 73.9245 25.1801 73.9389C25.1713 73.9533 25.159 73.9651 25.1442 73.9733C25.1295 73.9815 25.1129 73.9857 25.096 73.9856C25.0792 73.9854 25.0626 73.9809 25.048 73.9725C20.6615 71.4392 16.2777 68.8992 11.8966 66.3524C9.11411 64.7349 7.15386 63.3693 6.01592 62.2558C2.49371 58.7986 0.735316 54.4853 0.740735 49.3157C0.751572 42.0248 0.748861 34.7772 0.732605 27.5729C0.732605 27.3508 0.828785 27.2952 1.02115 27.4063Z" fill="#F45D2D"/>
</svg>
